{"title":"Step By Step","uid":7178150,"size":2377520267,"categoryP":"video","categoryS":"tv_shows","magnet":"?xt=urn:btih:fc54be59fd4683a0f36d046a039b762908d54046&amp;dn=Step+By+Step&amp;tr=udp%3A%2F%2Ftracker.openbittorrent.com%3A80&amp;tr=udp%3A%2F%2Fopen.demonii.com%3A1337&amp;tr=udp%3A%2F%2Ftracker.coppersurfer.tk%3A6969&amp;tr=udp%3A%2F%2Fexodus.desync.com%3A6969","seeders":1,"leechers":1,"uploader":"Harrharrr","files":-1,"time":1334179356,"description":"Television Favorites DVD Rip, 6 episodes.\n\n1. Pilot (Season 1, Debut Episode)\n\n2. Rules of the House (Season 1)\n\n3. J.T.`s World (Season 2)\n\n4. Christmas Story (Season 3)\n\n5. I`ll Be Home for Christmas (Season 4)\n\n6. Your Cheatin` Heart (Season 7)\n\nComplete name                            : L:Step By StepEpisode 1.m4v\nFormat                                   : MPEG-4\nFormat profile                           : Base Media / Version 2\nCodec ID                                 : mp42\nFile size                                : 348 MiB\nDuration                                 : 23mn 18s\nOverall bit rate                         : 2 088 Kbps\n\nID                                       : 1\nFormat                                   : AVC\nFormat/Info                              : Advanced Video Codec\nFormat profile                           : &lt;a class=&quot;__cf_email__&quot; href=&quot;/cdn-cgi/l/email-protection&quot; data-cfemail=&quot;0449656d6a4448372a34&quot;&gt;[email&amp;#160;protected]&lt;/a&gt;&lt;script cf-hash='f9e31' type=&quot;text/javascript&quot;&gt;\n/* &lt;![CDATA[ */!function(){try{var t=&quot;currentScript&quot;in document?document.currentScript:function(){for(var t=document.getElementsByTagName(&quot;script&quot;),e=t.length;e--;)if(t[e].getAttribute(&quot;cf-hash&quot;))return t[e]}();if(t&amp;&amp;t.previousSibling){var e,r,n,i,c=t.previousSibling,a=c.getAttribute(&quot;data-cfemail&quot;);if(a){for(e=&quot;&quot;,r=parseInt(a.substr(0,2),16),n=2;a.length-n;n+=2)i=parseInt(a.substr(n,2),16)^r,e+=String.fromCharCode(i);e=document.createTextNode(e),c.parentNode.replaceChild(e,c)}}}catch(u){}}();/* ]]&gt; */&lt;/script&gt;\nFormat settings, CABAC                   : Yes\nFormat settings, ReFrames                : 4 frames\nCodec ID                                 : avc1\nCodec ID/Info                            : Advanced Video Coding\nDuration                                 : 23mn 18s\nBit rate mode                            : Variable\nBit rate                                 : 1 893 Kbps\nWidth                                    : 702 pixels\nHeight                                   : 480 pixels\nDisplay aspect ratio                     : 1.300\nFrame rate mode                          : Variable\nFrame rate                               : 29.970 fps\nMinimum frame rate                       : 9.990 fps\nMaximum frame rate                       : 29.970 fps\nColor space                              : YUV\nChroma subsampling                       : 4:2:0\nBit depth                                : 8 bits\nScan type                                : Progressive\nBits/(Pixel*Frame)                       : 0.187\nStream size                              : 316 MiB (91%)\nWriting library                          : x264 core 120\n\nID                                       : 2\nFormat                                   : AC-3\nFormat/Info                              : Audio Coding 3\nMode extension                           : CM (complete main)\nFormat settings, Endianness              : Big\nCodec ID                                 : ac-3\nDuration                                 : 23mn 17s\nBit rate mode                            : Constant\nBit rate                                 : 192 Kbps\nChannel(s)                               : 2 channels\nChannel positions                        : Front: L R\nSampling rate                            : 48.0 KHz\nBit depth                                : 16 bits\nCompression mode                         : Lossy\nDelay relative to video                  : -133ms\nStream size                              : 32.0 MiB (9%)\nLanguage                                 : English\n\n\n\n\n\n","torrent":{"xt":"urn:btih:fc54be59fd4683a0f36d046a039b762908d54046","amp;dn":"Step+By+Step","amp;tr":["udp%3A%2F%2Ftracker.openbittorrent.com%3A80","udp%3A%2F%2Fopen.demonii.com%3A1337","udp%3A%2F%2Ftracker.coppersurfer.tk%3A6969","udp%3A%2F%2Fexodus.desync.com%3A6969"],"infoHash":"fc54be59fd4683a0f36d046a039b762908d54046","infoHashBuffer":{"type":"Buffer","data":[252,84,190,89,253,70,131,160,243,109,4,106,3,155,118,41,8,213,64,70]},"announce":[],"urlList":[]}}